# xmcd
#
# Track frame offsets:
#	150
#	23923
#	62873
#	88406
#	126069
#	149166
#	177773
#	206548
#	223611
#	264554
#	281651
#	305386
#
# Disc length: 4235 seconds
#
# Revision: 1
# Processed by: cddbd v1.5.2PL0 Copyright (c) Steve Scherf et al.
# Submitted via: audiograbber 1.83.01
#
DISCID=bd10890c
DTITLE=Cody McFadyen gelesen von Franziska Pigulla - Der Todeskünstler (bearbei
DTITLE=tete Fassung) CD 05
DYEAR=2007
DGENRE=Hörbuch
TTITLE0=Cody McFadyen gelesen von Franziska Pigulla - 05 - 047 Der Todeskünstle
TTITLE0=r
TTITLE1=Cody McFadyen gelesen von Franziska Pigulla - 05 - 048 Der Todeskünstle
TTITLE1=r
TTITLE2=Cody McFadyen gelesen von Franziska Pigulla - 05 - 049 Der Todeskünstle
TTITLE2=r
TTITLE3=Cody McFadyen gelesen von Franziska Pigulla - 05 - 050 Der Todeskünstle
TTITLE3=r
TTITLE4=Cody McFadyen gelesen von Franziska Pigulla - 05 - 051 Der Todeskünstle
TTITLE4=r
TTITLE5=Cody McFadyen gelesen von Franziska Pigulla - 05 - 052 Der Todeskünstle
TTITLE5=r
TTITLE6=Cody McFadyen gelesen von Franziska Pigulla - 05 - 053 Der Todeskünstle
TTITLE6=r
TTITLE7=Cody McFadyen gelesen von Franziska Pigulla - 05 - 054 Der Todeskünstle
TTITLE7=r
TTITLE8=Cody McFadyen gelesen von Franziska Pigulla - 05 - 055 Der Todeskünstle
TTITLE8=r
TTITLE9=Cody McFadyen gelesen von Franziska Pigulla - 05 - 056 Der Todeskünstle
TTITLE9=r
TTITLE10=Cody McFadyen gelesen von Franziska Pigulla - 05 - 057 Der Todeskünstl
TTITLE10=er
TTITLE11=Cody McFadyen gelesen von Franziska Pigulla - 05 - 058 Der Todeskünstl
TTITLE11=er
EXTD=
EXTT0=
EXTT1=
EXTT2=
EXTT3=
EXTT4=
EXTT5=
EXTT6=
EXTT7=
EXTT8=
EXTT9=
EXTT10=
EXTT11=
PLAYORDER=
